<?xml version="1.0" encoding="UTF-8"?>
<svg id="Layer_2" data-name="Layer 2" xmlns="http://www.w3.org/2000/svg" xmlns:xlink="http://www.w3.org/1999/xlink" viewBox="0 0 346.3 159.07">
  <defs>
    <style>
      .cls-1 {
        fill: #ed1c24;
      }

      .cls-1, .cls-2, .cls-3, .cls-4 {
        stroke-width: 0px;
      }

      .cls-2 {
        fill: none;
      }

      .cls-5 {
        clip-path: url(#clippath);
      }

      .cls-3 {
        fill: #015598;
      }

      .cls-4 {
        fill: #f4f4f4;
      }
    </style>
    <clipPath id="clippath">
      <rect class="cls-2" x="28" y="54" width="68" height="68"/>
    </clipPath>
  </defs>
  <g id="Layer_1-2" data-name="Layer 1">
    <g id="original_black_bg">
      <g>
        <path class="cls-4" d="m177.72,46.39c2.47,0,4.46.38,5.98,1.13,1.51.76,2.62,2.04,3.31,3.85.7,1.81,1.04,4.3,1.04,7.47,0,3.41-.35,6.1-1.04,8.06-.7,1.97-1.8,3.36-3.31,4.18-1.51.82-3.5,1.22-5.98,1.22h-8.57v-20.99l-1.98-4.93h10.55Zm-.43,20.16c.77,0,1.39-.23,1.85-.7s.81-1.26,1.03-2.38c.22-1.12.32-2.66.32-4.63,0-1.8-.1-3.19-.29-4.16-.19-.97-.52-1.64-.97-2-.46-.36-1.1-.54-1.94-.54h-1.12v14.4h1.12Z"/>
        <path class="cls-4" d="m190.03,45.13h6.84v4.9h-6.84v-4.9Zm.18,6.48h6.48v20.7h-6.48v-20.7Z"/>
        <path class="cls-4" d="m208.25,78.07c-.98,0-1.96-.04-2.92-.13-.96-.08-2.06-.21-3.31-.38v-4.9c.82.1,1.57.17,2.25.23.68.06,1.4.09,2.14.09,1.06,0,1.87-.2,2.45-.59.58-.4.86-1.04.86-1.93v-1.12c-1.08,1.01-2.47,1.51-4.18,1.51-1.3,0-2.37-.26-3.22-.77-.85-.52-1.52-1.22-2-2.12-.48-.9-.82-1.92-1.03-3.06-.2-1.14-.31-2.33-.31-3.58,0-3.6.61-6.17,1.82-7.7s2.97-2.3,5.27-2.3c1.7,0,3.08.56,4.14,1.69l.47-1.4h5.51v18.18c0,2.76-.69,4.83-2.07,6.21-1.38,1.38-3.34,2.07-5.89,2.07Zm-.5-11.88c.26,0,.56-.04.9-.12s.7-.22,1.08-.41v-9.11c-.26-.05-.52-.09-.77-.13-.25-.04-.49-.05-.7-.05-1.1,0-1.81.45-2.11,1.33-.3.89-.45,2.22-.45,4,0,1.63.14,2.79.43,3.47s.83,1.03,1.62,1.03Z"/>
        <path class="cls-4" d="m218.9,45.13h6.84v4.9h-6.84v-4.9Zm.18,6.48h6.48v20.7h-6.48v-20.7Z"/>
        <path class="cls-4" d="m236.54,51.61h3.92v4.86h-3.92v8.96c0,.67.17,1.17.52,1.48.35.31.91.47,1.67.47.38,0,.72-.02,1.01-.05.29-.04.53-.08.72-.13v4.79c-.58.19-1.18.35-1.82.49-.64.13-1.28.2-1.93.2-2.21,0-3.87-.47-4.99-1.42-1.12-.95-1.67-2.65-1.67-5.09v-9.68h-2.7v-4.86h2.7v-4.54h6.48v4.54Z"/>
        <path class="cls-4" d="m247.45,72.67c-.96,0-1.86-.25-2.7-.74-.84-.49-1.52-1.21-2.05-2.14s-.79-2.06-.79-3.38c0-2.06.73-3.62,2.18-4.68,1.45-1.06,3.33-1.58,5.63-1.58h1.55v-1.98c0-.7-.24-1.17-.72-1.42-.48-.25-1.09-.38-1.84-.38-.91,0-1.79.08-2.63.25-.84.17-1.68.41-2.52.72v-5.04c1.08-.24,2.2-.46,3.37-.67,1.16-.2,2.33-.31,3.51-.31,1.32,0,2.53.16,3.64.49,1.1.32,1.99.91,2.66,1.75s1.01,2.04,1.01,3.6v15.16h-5.62l-.43-1.55c-.6.65-1.27,1.13-2.02,1.44-.74.31-1.49.47-2.23.47Zm2.52-4.75c.48,0,.91-.22,1.3-.65v-3.56h-.47c-.72,0-1.33.17-1.84.52s-.76.87-.76,1.57.18,1.19.54,1.57c.36.37.77.56,1.22.56Z"/>
        <path class="cls-4" d="m266.92,72.31h-6.48v-26.32l6.48-.86v27.18Z"/>
        <path class="cls-4" d="m286.8,46.39l5.08,14.79v-14.79h6.84v25.92h-8.42l-4.61-13.46v13.46h-6.84v-22.21l-1.48-3.71h9.43Z"/>
        <path class="cls-4" d="m310.56,72.67c-1.42,0-2.71-.16-3.87-.47s-2.17-.86-3.01-1.66-1.49-1.88-1.94-3.28c-.46-1.39-.68-3.17-.68-5.33,0-3.5.65-6.15,1.96-7.94,1.31-1.79,3.41-2.68,6.32-2.68,2.64,0,4.55.73,5.74,2.18,1.19,1.45,1.78,3.61,1.78,6.46,0,.67-.02,1.36-.07,2.07-.05.71-.13,1.35-.25,1.93h-8.6c.14,1.46.55,2.44,1.22,2.93.67.49,1.8.74,3.38.74.55,0,1.12-.05,1.71-.14.59-.1,1.16-.2,1.71-.32v4.9c-.84.17-1.72.31-2.65.43-.92.12-1.84.18-2.75.18Zm-.97-16.6c-.96,0-1.52,1.3-1.69,3.89h2.95c0-.53-.02-1.09-.05-1.69-.04-.6-.14-1.12-.32-1.55-.18-.43-.47-.65-.88-.65Z"/>
        <path class="cls-4" d="m325.5,66.26c0-.41-.3-.8-.9-1.19l-3.1-2.02c-1.13-.74-1.94-1.55-2.45-2.41-.5-.86-.76-1.99-.76-3.38,0-1.99.59-3.47,1.76-4.45,1.18-.97,3.11-1.47,5.8-1.49,1.01,0,1.94.04,2.79.13.85.08,1.79.22,2.83.41l-.54,4.79c-.72-.1-1.36-.17-1.93-.23-.56-.06-1.15-.09-1.75-.09-.86,0-1.49.07-1.87.22-.38.14-.58.42-.58.83,0,.24.07.44.22.59.14.16.37.33.68.52l3.17,2.05c1.15.74,1.98,1.54,2.48,2.39.5.85.76,1.95.76,3.29,0,2.14-.61,3.74-1.84,4.81-1.22,1.07-3.23,1.61-6.01,1.64-1.22,0-2.35-.07-3.37-.2-1.02-.13-1.95-.31-2.79-.52l.54-4.9c1.78.26,3.4.4,4.86.4,1.32,0,1.98-.4,1.98-1.19Z"/>
        <path class="cls-4" d="m342.38,51.61h3.92v4.86h-3.92v8.96c0,.67.17,1.17.52,1.48.35.31.91.47,1.67.47.38,0,.72-.02,1.01-.05.29-.04.53-.08.72-.13v4.79c-.58.19-1.18.35-1.82.49-.64.13-1.28.2-1.93.2-2.21,0-3.87-.47-4.99-1.42-1.12-.95-1.67-2.65-1.67-5.09v-9.68h-2.7v-4.86h2.7v-4.54h6.48v4.54Z"/>
        <path class="cls-4" d="m167.89,102.73c0-3.41.4-6.09,1.19-8.05.79-1.96,1.99-3.34,3.58-4.16,1.6-.82,3.58-1.22,5.96-1.22.77,0,1.65.04,2.65.12,1,.08,1.96.23,2.9.45v9.5h-4.36l-.58-4.36c-.65,0-1.21.08-1.67.23-.47.16-.86.49-1.17.99-.31.5-.55,1.27-.7,2.3-.16,1.03-.23,2.41-.23,4.14,0,1.87.2,3.34.61,4.41s1.03,1.82,1.85,2.27,1.89.67,3.19.67c.58,0,1.13-.04,1.66-.11.53-.07,1.09-.16,1.69-.25v5.69c-.7.17-1.54.29-2.52.38s-1.86.13-2.63.13c-4.1,0-7.03-1.1-8.78-3.31-1.75-2.21-2.63-5.48-2.63-9.83Z"/>
        <path class="cls-4" d="m194.6,115.87c-2.14,0-3.86-.36-5.17-1.08-1.31-.72-2.26-1.87-2.84-3.44-.59-1.57-.88-3.63-.88-6.17s.29-4.6.88-6.16,1.54-2.7,2.84-3.42c1.31-.72,3.03-1.08,5.17-1.08s3.89.36,5.18,1.08c1.3.72,2.24,1.86,2.83,3.42.59,1.56.88,3.61.88,6.16s-.29,4.6-.88,6.17c-.59,1.57-1.53,2.72-2.83,3.44s-3.02,1.08-5.18,1.08Zm-.04-5.08c.82,0,1.39-.44,1.73-1.31s.5-2.3.5-4.27-.17-3.43-.5-4.3c-.34-.88-.91-1.31-1.73-1.31s-1.35.44-1.67,1.31c-.32.88-.49,2.31-.49,4.3s.16,3.39.49,4.27c.32.88.88,1.31,1.67,1.31Z"/>
        <path class="cls-4" d="m214.94,101.76c0-1.46-.55-2.2-1.66-2.2-.43,0-.82.13-1.15.4v15.55h-6.48v-20.7h5.51l.47,1.4c1.34-1.13,2.81-1.69,4.39-1.69.91,0,1.74.18,2.48.54.74.36,1.36.9,1.84,1.62.77-.74,1.58-1.29,2.43-1.64s1.71-.52,2.57-.52c1.56,0,2.84.52,3.85,1.55,1.01,1.03,1.51,2.58,1.51,4.64v14.79h-6.48v-13.75c0-1.46-.55-2.2-1.66-2.2-.48,0-.88.12-1.19.36,0,.12,0,.25.02.4.01.14.02.28.02.4v14.79h-6.48v-13.75Z"/>
        <path class="cls-4" d="m233.41,120.91v-26.1h5.51l.54,1.66c.55-.62,1.22-1.1,2-1.44.78-.34,1.62-.5,2.54-.5,1.32,0,2.41.28,3.26.85.85.56,1.52,1.34,2.02,2.32.49.98.84,2.09,1.04,3.33.2,1.24.31,2.54.31,3.91,0,3.94-.61,6.74-1.84,8.42-1.22,1.68-3.01,2.52-5.36,2.52-1.06,0-2.23-.22-3.53-.65v4.75l-6.48.94Zm7.96-10.08c1.1,0,1.8-.5,2.11-1.51.3-1.01.45-2.53.45-4.57,0-1.9-.14-3.23-.43-4.01-.29-.78-.83-1.17-1.62-1.17-.24,0-.53.05-.86.14-.34.1-.71.25-1.12.47v10.44c.55.14,1.04.22,1.48.22Z"/>
        <path class="cls-4" d="m262.6,114.11c-.67.55-1.39.98-2.16,1.3-.77.31-1.54.47-2.3.47-1.58,0-2.9-.52-3.96-1.55-1.06-1.03-1.58-2.58-1.58-4.64v-14.87h6.48v13.75c0,1.46.59,2.2,1.76,2.2.46,0,.88-.13,1.26-.4v-15.55h6.48v20.7h-5.51l-.47-1.4Z"/>
        <path class="cls-4" d="m279.56,94.81h3.92v4.86h-3.92v8.96c0,.67.17,1.16.52,1.48s.91.47,1.67.47c.38,0,.72-.02,1.01-.05s.53-.08.72-.13v4.79c-.58.19-1.18.35-1.82.49-.64.13-1.28.2-1.93.2-2.21,0-3.87-.47-4.99-1.42-1.12-.95-1.67-2.65-1.67-5.09v-9.68h-2.7v-4.86h2.7v-4.54h6.48v4.54Z"/>
        <path class="cls-4" d="m294.43,115.87c-1.42,0-2.71-.16-3.87-.47s-2.17-.86-3.01-1.66-1.49-1.88-1.94-3.28c-.46-1.39-.68-3.17-.68-5.33,0-3.5.65-6.15,1.96-7.94,1.31-1.79,3.41-2.68,6.32-2.68,2.64,0,4.55.73,5.74,2.18,1.19,1.45,1.78,3.61,1.78,6.46,0,.67-.02,1.36-.07,2.07-.05.71-.13,1.35-.25,1.93h-8.6c.14,1.46.55,2.44,1.22,2.93.67.49,1.8.74,3.38.74.55,0,1.12-.05,1.71-.14.59-.09,1.16-.2,1.71-.32v4.9c-.84.17-1.72.31-2.65.43s-1.84.18-2.75.18Zm-.97-16.6c-.96,0-1.52,1.3-1.69,3.89h2.95c0-.53-.02-1.09-.05-1.69-.04-.6-.14-1.12-.32-1.55-.18-.43-.47-.65-.88-.65Z"/>
        <path class="cls-4" d="m302.71,115.51v-20.7h5.51l.72,2.88h.07c.38-1.2,1.06-2.08,2.03-2.63.97-.55,2.2-.7,3.69-.43v6.12c-.94,0-1.9.06-2.9.18-1,.12-1.88.29-2.65.5v14.08h-6.48Z"/>
        <path class="cls-4" d="m168.79,132.79h7.02v25.92h-7.02v-25.92Z"/>
        <path class="cls-4" d="m184.85,139.42c1.42-1.13,2.95-1.69,4.61-1.69s3.03.52,4.12,1.55c1.09,1.03,1.64,2.58,1.64,4.64v14.8h-6.48v-13.75c0-1.46-.66-2.2-1.98-2.2-.53,0-1,.13-1.4.4v15.55h-6.48v-20.7h5.51l.47,1.4Z"/>
        <path class="cls-4" d="m204.57,152.67c0-.41-.3-.8-.9-1.19l-3.1-2.02c-1.13-.74-1.94-1.55-2.45-2.41s-.76-1.99-.76-3.38c0-1.99.59-3.47,1.76-4.45s3.11-1.47,5.8-1.49c1.01,0,1.94.04,2.79.12.85.08,1.79.22,2.83.41l-.54,4.79c-.72-.1-1.36-.17-1.93-.23-.56-.06-1.15-.09-1.75-.09-.86,0-1.49.07-1.87.21-.38.14-.58.42-.58.83,0,.24.07.44.22.59.14.16.37.33.68.52l3.17,2.05c1.15.74,1.98,1.54,2.48,2.39s.76,1.95.76,3.29c0,2.14-.61,3.74-1.84,4.81-1.22,1.07-3.23,1.61-6.01,1.64-1.22,0-2.35-.07-3.37-.2s-1.95-.31-2.79-.52l.54-4.9c1.78.26,3.4.4,4.86.4,1.32,0,1.98-.4,1.98-1.19Z"/>
        <path class="cls-4" d="m221.46,138.01h3.92v4.86h-3.92v8.96c0,.67.17,1.16.52,1.48.35.31.91.47,1.67.47.38,0,.72-.02,1.01-.05.29-.04.53-.08.72-.13v4.79c-.58.19-1.18.35-1.82.49-.64.13-1.28.2-1.93.2-2.21,0-3.87-.47-4.99-1.42-1.12-.95-1.67-2.65-1.67-5.09v-9.68h-2.7v-4.86h2.7v-4.54h6.48v4.54Z"/>
        <path class="cls-4" d="m227.36,131.53h6.84v4.9h-6.84v-4.9Zm.18,6.48h6.48v20.7h-6.48v-20.7Z"/>
        <path class="cls-4" d="m245,138.01h3.92v4.86h-3.92v8.96c0,.67.17,1.16.52,1.48.35.31.91.47,1.67.47.38,0,.72-.02,1.01-.05.29-.04.53-.08.72-.13v4.79c-.58.19-1.18.35-1.82.49-.64.13-1.28.2-1.93.2-2.21,0-3.87-.47-4.99-1.42-1.12-.95-1.67-2.65-1.67-5.09v-9.68h-2.7v-4.86h2.7v-4.54h6.48v4.54Z"/>
        <path class="cls-4" d="m260.91,157.31c-.67.55-1.39.98-2.16,1.3-.77.31-1.54.47-2.3.47-1.58,0-2.9-.52-3.96-1.55-1.06-1.03-1.58-2.58-1.58-4.64v-14.87h6.48v13.75c0,1.46.59,2.2,1.76,2.2.46,0,.88-.13,1.26-.4v-15.55h6.48v20.7h-5.51l-.47-1.4Z"/>
        <path class="cls-4" d="m277.87,138.01h3.92v4.86h-3.92v8.96c0,.67.17,1.16.52,1.48.35.31.91.47,1.67.47.38,0,.72-.02,1.01-.05.29-.04.53-.08.72-.13v4.79c-.58.19-1.18.35-1.82.49-.64.13-1.28.2-1.93.2-2.21,0-3.87-.47-4.99-1.42-1.12-.95-1.67-2.65-1.67-5.09v-9.68h-2.7v-4.86h2.7v-4.54h6.48v4.54Z"/>
        <path class="cls-4" d="m292.74,159.07c-1.42,0-2.71-.16-3.87-.47-1.16-.31-2.17-.86-3.01-1.66-.84-.79-1.49-1.88-1.94-3.28-.46-1.39-.68-3.17-.68-5.33,0-3.5.65-6.15,1.96-7.94,1.31-1.79,3.41-2.68,6.32-2.68,2.64,0,4.55.73,5.74,2.18,1.19,1.45,1.78,3.61,1.78,6.46,0,.67-.02,1.36-.07,2.07-.05.71-.13,1.35-.25,1.93h-8.6c.14,1.46.55,2.44,1.22,2.93.67.49,1.8.74,3.38.74.55,0,1.12-.05,1.71-.14.59-.09,1.16-.2,1.71-.32v4.9c-.84.17-1.72.31-2.65.43s-1.84.18-2.75.18Zm-.97-16.6c-.96,0-1.52,1.29-1.69,3.89h2.95c0-.53-.02-1.09-.05-1.69s-.14-1.12-.32-1.55c-.18-.43-.47-.65-.88-.65Z"/>
      </g>
      <rect class="cls-3" x="145" y="16" width="4" height="143"/>
      <g class="cls-5">
        <g id="web">
          <path id="vector" class="cls-1" d="m50.1,88h-2.12,2.12Zm23.8,0h2.12-2.12Zm-11.9,11.9v2.12-2.12Zm6.16,17.21l.44,2.08-.44-2.08Zm-12.31,0l-.44,2.08.44-2.08Zm-21.4-40.35l-1.97-.8h0l1.97.8Zm-1.56,17.4l-2.08.44,2.08-.44Zm22.96-35.27l-.44-2.08.44,2.08Zm12.31,0l.44-2.08-.44,2.08Zm21.16,17.98l.62,2.03-.62-2.03Zm-54.63,0l-.62,2.03.62-2.03Zm52.9.7c1.31,3.22,2.04,6.74,2.04,10.43h4.25c0-4.25-.83-8.32-2.35-12.04l-3.93,1.61Zm2.04,10.43c0,1.96-.2,3.88-.59,5.72l4.16.88c.45-2.13.68-4.34.68-6.59h-4.25Zm-.59,5.72c-2.24,10.67-10.65,19.07-21.31,21.31l.88,4.16c12.31-2.59,22.01-12.28,24.6-24.6l-4.16-.88Zm-21.31,21.31c-1.84.39-3.76.59-5.72.59v4.25c2.26,0,4.46-.24,6.59-.68l-.88-4.16Zm-5.72.59c-1.96,0-3.88-.2-5.72-.59l-.88,4.16c2.13.45,4.34.68,6.59.68v-4.25Zm-27.62-27.62c0-3.7.73-7.22,2.04-10.44l-3.93-1.61c-1.52,3.72-2.36,7.79-2.36,12.05h4.25Zm21.91,27.03c-10.67-2.24-19.07-10.65-21.31-21.31l-4.16.88c2.59,12.31,12.28,22.01,24.6,24.6l.88-4.16Zm-21.31-21.31c-.39-1.84-.59-3.76-.59-5.72h-4.25c0,2.26.24,4.46.68,6.59l4.16-.88Zm1.45-16.16c3.42-8.37,10.83-14.69,19.87-16.59l-.88-4.16c-10.43,2.2-18.98,9.49-22.93,19.15l3.93,1.61Zm19.87-16.59c1.84-.39,3.76-.59,5.72-.59v-4.25c-2.26,0-4.46.24-6.59.68l.88,4.16Zm5.72-.59c1.96,0,3.88.2,5.72.59l.88-4.16c-2.13-.45-4.34-.68-6.59-.68v4.25Zm5.72.59c9.03,1.9,16.45,8.22,19.87,16.6l3.93-1.61c-3.94-9.66-12.49-16.96-22.93-19.15l-.88,4.16Zm-1.59-1.43c.82,2.57,3.86,12.48,5.11,21.58l4.21-.58c-1.3-9.49-4.44-19.68-5.27-22.29l-4.05,1.29Zm5.11,21.58c.33,2.44.53,4.78.53,6.89h4.25c0-2.36-.22-4.9-.57-7.47l-4.21.58Zm17.46-6.28c-3.27.99-9.4,2.73-15.74,3.9l.77,4.18c6.56-1.21,12.86-3,16.2-4.01l-1.23-4.07Zm-15.74,3.9c-3.84.71-7.68,1.19-10.96,1.19v4.25c3.65,0,7.77-.53,11.73-1.26l-.77-4.18Zm-1.19,9.27c0,3.12-.44,6.75-1.09,10.4l4.18.75c.68-3.78,1.16-7.68,1.16-11.15h-4.25Zm-1.09,10.4c-1.43,8.01-3.84,15.83-4.55,18.07l4.05,1.29c.73-2.29,3.2-10.32,4.69-18.61l-4.18-.75Zm19.78-6.27c-2.23.71-10.05,3.12-18.07,4.55l.75,4.18c8.29-1.48,16.32-3.96,18.61-4.69l-1.29-4.05Zm-18.07,4.55c-3.66.65-7.28,1.09-10.4,1.09v4.25c3.47,0,7.37-.48,11.15-1.16l-.75-4.18Zm-10.4,1.09c-3.12,0-6.75-.44-10.4-1.09l-.75,4.18c3.78.68,7.68,1.16,11.15,1.16v-4.25Zm-10.4-1.09c-8.01-1.43-15.83-3.84-18.06-4.55l-1.29,4.05c2.29.73,10.32,3.2,18.61,4.69l.75-4.18Zm-3.62-8.68c0,3.47.48,7.37,1.16,11.15l4.18-.75c-.65-3.66-1.09-7.28-1.09-10.4h-4.25Zm1.16,11.15c1.48,8.29,3.96,16.32,4.69,18.61l4.05-1.29c-.71-2.23-3.12-10.05-4.55-18.07l-4.18.75Zm4.69-40.91c-.83,2.61-3.97,12.81-5.27,22.29l4.21.58c1.25-9.1,4.29-19,5.11-21.58l-4.05-1.29Zm-5.27,22.29c-.35,2.56-.57,5.11-.57,7.47h4.25c0-2.11.2-4.45.53-6.89l-4.21-.58Zm13.45-.61c-3.28,0-7.12-.48-10.96-1.19l-.77,4.18c3.96.73,8.08,1.26,11.73,1.26v-4.25Zm-10.96-1.19c-6.33-1.17-12.47-2.91-15.74-3.9l-1.23,4.07c3.33,1.01,9.64,2.8,16.2,4.01l.77-4.18Zm37.54-3.85s.08-.03.12-.05l1.23,4.07c.21-.06.41-.15.61-.25l-1.96-3.77Zm-55.24,3.69c.22.14.47.25.73.33l1.23-4.07c.09.03.18.07.26.11l-2.22,3.63Z"/>
        </g>
      </g>
      <g>
        <path class="cls-1" d="m90,44.56v-25.81c0-1.14.92-2.12,2.06-2.1s1.94.82,1.94,2v26c0,1.18-.77,1.97-1.94,2s-2.06-.95-2.06-2.1Z"/>
        <path class="cls-1" d="m61.57,36.75c-.41,0-.61,0-1.02-.2l-30.54-16.29c-.61-.41-1.02-1.02-1.02-1.83s.41-1.43,1.02-1.83L60.56.31c.61-.41,1.22-.41,1.83,0l30.54,16.29c.61.41,1.02,1.02,1.02,1.83s-.41,1.43-1.02,1.83l-30.54,16.29c-.2.2-.41.2-.81.2Z"/>
        <path class="cls-1" d="m64.37,40c-.82.61-1.84.82-2.87.82s-2.05-.21-2.87-.82l-17.63-9.23v7.99c0,6.36,10.04,12.3,20.5,12.3s20.5-5.94,20.5-12.3v-7.99l-17.63,9.23Z"/>
      </g>
      <path class="cls-3" d="m12.57,47.49c-1.77-.02-3.57,1.48-3.57,3.63v66.43l52.5,14.09,52.5-14.09V51.14c0-4.28-7.2-6.01-7,1.88v60.8l-45.5,12.21-45.5-12.21v-60.82c.1-3.94-1.65-5.48-3.43-5.5Zm46.22,84.15l64.21-10.55V51.11c-.08-4.48-6.45-4.84-6,1.32v65.13l-58.21,14.09Zm5.43,0l-58.22-14.09V52.42c.46-6.16-5.92-5.79-6-1.32v69.99l64.22,10.55Z"/>
      <path class="cls-3" d="m55,133.83v9.17h-9.48l-13.64,11h60.24l-13.64-11h-9.48v-9.17l-7,1.05-7-1.05Z"/>
    </g>
  </g>
</svg>