<?xml version="1.0" encoding="UTF-8"?>
<svg xmlns="http://www.w3.org/2000/svg" xmlns:xlink="http://www.w3.org/1999/xlink" width="3750" height="3750" viewBox="0 0 3750 3750">

<path fill-rule="nonzero" fill="rgb(0.392151%, 33.325195%, 59.568787%)" fill-opacity="1" d="M 1875 1268.359375 C 1806.601562 1268.359375 1751.390625 1323.570312 1751.390625 1391.96875 C 1751.390625 1460.371094 1806.601562 1515.550781 1875 1515.550781 C 1880.898438 1515.550781 1886.660156 1515.019531 1892.339844 1514.21875 L 1891.179688 1506.019531 C 1885.878906 1506.761719 1880.511719 1507.25 1875 1507.25 C 1811.039062 1507.25 1759.691406 1455.941406 1759.691406 1391.96875 C 1759.691406 1328 1811.039062 1276.53125 1875 1276.53125 C 1938.96875 1276.53125 1990.308594 1328 1990.308594 1391.96875 C 1990.308594 1401.691406 1989 1411.058594 1986.761719 1420.058594 L 1994.769531 1422.058594 C 1997.179688 1412.410156 1998.609375 1402.378906 1998.609375 1391.96875 C 1998.609375 1323.570312 1943.398438 1268.359375 1875 1268.359375 Z M 1983.441406 1451.339844 L 1970.878906 1463.890625 L 1973.488281 1466.511719 C 1977.140625 1461.691406 1980.519531 1456.671875 1983.441406 1451.339844 Z M 1983.441406 1451.339844 "/>
<path fill-rule="nonzero" fill="rgb(0.392151%, 33.325195%, 59.568787%)" fill-opacity="1" d="M 1373.269531 1022.539062 C 1355.378906 1022.351562 1337.261719 1037.5 1337.289062 1059.089844 L 1337.289062 1739.488281 L 1875 1883.769531 L 2412.710938 1739.488281 L 2412.710938 1059.089844 C 2412.789062 1015.921875 2340.140625 998.519531 2342.148438 1078 L 2342.148438 1701.070312 L 1875 1826.429688 L 1407.851562 1701.070312 L 1407.851562 1078 C 1408.859375 1038.261719 1391.171875 1022.730469 1373.269531 1022.539062 Z M 1875 1883.769531 L 2502.441406 1775.730469 L 2502.441406 1059.089844 C 2501.640625 1013.230469 2439.371094 1009.5 2443.808594 1072.558594 L 2443.808594 1739.488281 Z M 1875 1883.769531 L 1306.191406 1739.488281 L 1306.191406 1072.558594 C 1310.640625 1009.5 1248.359375 1013.230469 1247.570312 1059.089844 L 1247.570312 1775.730469 Z M 1875 1883.769531 "/>
<path fill-rule="nonzero" fill="rgb(0.392151%, 33.325195%, 59.568787%)" fill-opacity="1" d="M 1805.21875 1900.140625 L 1805.21875 1996.800781 L 1710.730469 1996.800781 L 1574.828125 2112.699219 L 2175.191406 2112.699219 L 2039.261719 1996.800781 L 1944.738281 1996.800781 L 1944.738281 1900.140625 L 1875 1911.191406 Z M 1805.21875 1900.140625 "/>
<path fill-rule="nonzero" fill="rgb(0.392151%, 33.325195%, 59.568787%)" fill-opacity="1" d="M 1875 1304.75 C 1826.71875 1304.75 1787.871094 1343.628906 1787.871094 1391.910156 C 1787.871094 1440.179688 1826.71875 1479.039062 1875 1479.039062 C 1882.351562 1479.039062 1889.46875 1478.050781 1896.269531 1476.359375 L 1875 1391.910156 L 1961.359375 1403.070312 C 1961.820312 1399.398438 1962.160156 1395.710938 1962.160156 1391.910156 C 1962.160156 1343.628906 1923.28125 1304.75 1875 1304.75 Z M 1875 1304.75 "/>
<path fill-rule="nonzero" fill="rgb(0.392151%, 33.325195%, 59.568787%)" fill-opacity="1" d="M 1875.011719 1391.890625 L 1902.421875 1532.351562 L 1940.628906 1494.140625 L 2011.160156 1564.660156 L 2047.75 1528.070312 L 1977.230469 1457.550781 L 2015.46875 1419.308594 Z M 1875.011719 1391.890625 "/>
<path fill-rule="nonzero" fill="rgb(0.392151%, 33.325195%, 59.568787%)" fill-opacity="1" d="M 1695.921875 1319.03125 L 1735.214844 1319.03125 L 1735.214844 1279.734375 L 1695.921875 1279.734375 Z M 1695.921875 1319.03125 "/>
<path fill-rule="nonzero" fill="rgb(0.392151%, 33.325195%, 59.568787%)" fill-opacity="1" d="M 1784.769531 1268.550781 L 1804.738281 1268.550781 L 1804.738281 1248.582031 L 1784.769531 1248.582031 Z M 1784.769531 1268.550781 "/>
<path fill-rule="nonzero" fill="rgb(0.392151%, 33.325195%, 59.568787%)" fill-opacity="1" d="M 1906.710938 1255.96875 L 1934.941406 1255.96875 L 1934.941406 1227.738281 L 1906.710938 1227.738281 Z M 1906.710938 1255.96875 "/>
<path fill-rule="nonzero" fill="rgb(0.392151%, 33.325195%, 59.568787%)" fill-opacity="1" d="M 1709.289062 1489.101562 L 1737.519531 1489.101562 L 1737.519531 1460.871094 L 1709.289062 1460.871094 Z M 1709.289062 1489.101562 "/>
<path fill-rule="nonzero" fill="rgb(0.392151%, 33.325195%, 59.568787%)" fill-opacity="1" d="M 1697.269531 1391.96875 L 1711.996094 1391.96875 L 1711.996094 1377.242188 L 1697.269531 1377.242188 Z M 1697.269531 1391.96875 "/>
<path fill-rule="nonzero" fill="rgb(0.392151%, 33.325195%, 59.568787%)" fill-opacity="1" d="M 1851.558594 1210.359375 L 1866.285156 1210.359375 L 1866.285156 1195.632812 L 1851.558594 1195.632812 Z M 1851.558594 1210.359375 "/>
<path fill-rule="nonzero" fill="rgb(0.392151%, 33.325195%, 59.568787%)" fill-opacity="1" d="M 1659.160156 1225.921875 L 1673.886719 1225.921875 L 1673.886719 1211.191406 L 1659.160156 1211.191406 Z M 1659.160156 1225.921875 "/>
<path fill-rule="nonzero" fill="rgb(0.392151%, 33.325195%, 59.568787%)" fill-opacity="1" d="M 1622.910156 1347.351562 L 1637.636719 1347.351562 L 1637.636719 1332.621094 L 1622.910156 1332.621094 Z M 1622.910156 1347.351562 "/>
<path fill-rule="nonzero" fill="rgb(0.392151%, 33.325195%, 59.568787%)" fill-opacity="1" d="M 1753.570312 1205.5 L 1768.292969 1205.5 L 1768.292969 1190.773438 L 1753.570312 1190.773438 Z M 1753.570312 1205.5 "/>
<path fill-rule="nonzero" fill="rgb(10.205078%, 10.205078%, 10.205078%)" fill-opacity="1" d="M 1053.640625 2512.390625 L 1053.640625 2554.410156 L 878.472656 2554.410156 L 878.472656 2328.179688 L 1049.441406 2328.179688 L 1049.441406 2370.191406 L 930.503906 2370.191406 L 930.503906 2419.320312 L 1035.539062 2419.320312 L 1035.539062 2460.03125 L 930.503906 2460.03125 L 930.503906 2512.390625 Z M 1053.640625 2512.390625 "/>
<path fill-rule="nonzero" fill="rgb(10.205078%, 10.205078%, 10.205078%)" fill-opacity="1" d="M 1095.328125 2328.179688 L 1198.089844 2328.179688 C 1222.660156 2328.179688 1244.359375 2332.859375 1263.21875 2342.238281 C 1282.070312 2351.609375 1296.71875 2364.808594 1307.171875 2381.828125 C 1317.621094 2398.859375 1322.839844 2418.679688 1322.839844 2441.300781 C 1322.839844 2463.921875 1317.621094 2483.730469 1307.171875 2500.75 C 1296.71875 2517.78125 1282.070312 2530.96875 1263.21875 2540.351562 C 1244.359375 2549.71875 1222.660156 2554.410156 1198.089844 2554.410156 L 1095.328125 2554.410156 Z M 1195.519531 2511.429688 C 1218.140625 2511.429688 1236.179688 2505.121094 1249.640625 2492.519531 C 1263.109375 2479.921875 1269.839844 2462.839844 1269.839844 2441.300781 C 1269.839844 2419.75 1263.109375 2402.671875 1249.640625 2390.070312 C 1236.179688 2377.460938 1218.140625 2371.160156 1195.519531 2371.160156 L 1147.691406 2371.160156 L 1147.691406 2511.429688 Z M 1195.519531 2511.429688 "/>
<path fill-rule="nonzero" fill="rgb(10.205078%, 10.205078%, 10.205078%)" fill-opacity="1" d="M 1462.78125 2558.28125 C 1430.460938 2558.28125 1405.308594 2549.351562 1387.320312 2531.46875 C 1369.328125 2513.589844 1360.339844 2488.050781 1360.339844 2454.859375 L 1360.339844 2328.179688 L 1412.679688 2328.179688 L 1412.679688 2452.929688 C 1412.679688 2493.441406 1429.488281 2513.691406 1463.109375 2513.691406 C 1479.480469 2513.691406 1491.96875 2508.789062 1500.589844 2498.988281 C 1509.210938 2489.191406 1513.53125 2473.828125 1513.53125 2452.929688 L 1513.53125 2328.179688 L 1565.230469 2328.179688 L 1565.230469 2454.859375 C 1565.230469 2488.050781 1556.230469 2513.589844 1538.25 2531.46875 C 1520.25 2549.351562 1495.101562 2558.28125 1462.78125 2558.28125 Z M 1462.78125 2558.28125 "/>
<path fill-rule="nonzero" fill="rgb(10.205078%, 10.205078%, 10.205078%)" fill-opacity="1" d="M 1725.210938 2558.28125 C 1702.160156 2558.28125 1681.308594 2553.28125 1662.660156 2543.269531 C 1644.03125 2533.25 1629.378906 2519.359375 1618.710938 2501.578125 C 1608.058594 2483.800781 1602.730469 2463.710938 1602.730469 2441.300781 C 1602.730469 2418.890625 1608.058594 2398.789062 1618.710938 2381.019531 C 1629.378906 2363.25 1644.03125 2349.359375 1662.660156 2339.328125 C 1681.308594 2329.308594 1702.269531 2324.300781 1725.539062 2324.300781 C 1745.140625 2324.300781 1762.859375 2327.75 1778.691406 2334.640625 C 1794.53125 2341.539062 1807.839844 2351.449219 1818.621094 2364.378906 L 1784.988281 2395.390625 C 1769.699219 2377.730469 1750.738281 2368.890625 1728.121094 2368.890625 C 1714.121094 2368.890625 1701.621094 2371.96875 1690.628906 2378.109375 C 1679.640625 2384.25 1671.070312 2392.808594 1664.929688 2403.800781 C 1658.789062 2414.789062 1655.730469 2427.289062 1655.730469 2441.300781 C 1655.730469 2455.300781 1658.789062 2467.800781 1664.929688 2478.78125 C 1671.070312 2489.78125 1679.640625 2498.339844 1690.628906 2504.488281 C 1701.621094 2510.621094 1714.121094 2513.691406 1728.121094 2513.691406 C 1750.738281 2513.691406 1769.699219 2504.75 1784.988281 2486.859375 L 1818.621094 2517.890625 C 1807.839844 2531.03125 1794.46875 2541.050781 1778.519531 2547.941406 C 1762.589844 2554.839844 1744.808594 2558.28125 1725.210938 2558.28125 Z M 1725.210938 2558.28125 "/>
<path fill-rule="nonzero" fill="rgb(10.205078%, 10.205078%, 10.205078%)" fill-opacity="1" d="M 1998.300781 2505.929688 L 1893.269531 2505.929688 L 1873.21875 2554.410156 L 1819.578125 2554.410156 L 1920.410156 2328.179688 L 1972.128906 2328.179688 L 2073.28125 2554.410156 L 2018.339844 2554.410156 Z M 1981.808594 2466.179688 L 1945.941406 2379.570312 L 1910.058594 2466.179688 Z M 1981.808594 2466.179688 "/>
<path fill-rule="nonzero" fill="rgb(10.205078%, 10.205078%, 10.205078%)" fill-opacity="1" d="M 2132.421875 2370.828125 L 2060.03125 2370.828125 L 2060.03125 2328.179688 L 2257.171875 2328.179688 L 2257.171875 2370.828125 L 2184.78125 2370.828125 L 2184.78125 2554.410156 L 2132.421875 2554.410156 Z M 2132.421875 2370.828125 "/>
<path fill-rule="nonzero" fill="rgb(10.205078%, 10.205078%, 10.205078%)" fill-opacity="1" d="M 2285.289062 2554.410156 L 2337.648438 2554.410156 L 2337.648438 2328.175781 L 2285.289062 2328.175781 Z M 2285.289062 2554.410156 "/>
<path fill-rule="nonzero" fill="rgb(10.205078%, 10.205078%, 10.205078%)" fill-opacity="1" d="M 2500.851562 2558.28125 C 2477.359375 2558.28125 2456.191406 2553.21875 2437.339844 2543.101562 C 2418.480469 2532.96875 2403.71875 2519.03125 2393.058594 2501.25 C 2382.398438 2483.46875 2377.070312 2463.488281 2377.070312 2441.300781 C 2377.070312 2419.109375 2382.398438 2399.121094 2393.058594 2381.351562 C 2403.71875 2363.570312 2418.480469 2349.609375 2437.339844 2339.488281 C 2456.191406 2329.359375 2477.359375 2324.300781 2500.851562 2324.300781 C 2524.328125 2324.300781 2545.441406 2329.359375 2564.179688 2339.488281 C 2582.929688 2349.609375 2597.691406 2363.570312 2608.460938 2381.351562 C 2619.238281 2399.121094 2624.628906 2419.109375 2624.628906 2441.300781 C 2624.628906 2463.488281 2619.238281 2483.46875 2608.460938 2501.25 C 2597.691406 2519.03125 2582.929688 2532.96875 2564.179688 2543.101562 C 2545.441406 2553.21875 2524.328125 2558.28125 2500.851562 2558.28125 Z M 2500.851562 2513.691406 C 2514.199219 2513.691406 2526.269531 2510.621094 2537.039062 2504.488281 C 2547.808594 2498.339844 2556.261719 2489.78125 2562.398438 2478.78125 C 2568.539062 2467.800781 2571.621094 2455.300781 2571.621094 2441.300781 C 2571.621094 2427.289062 2568.539062 2414.789062 2562.398438 2403.800781 C 2556.261719 2392.808594 2547.808594 2384.25 2537.039062 2378.109375 C 2526.269531 2371.96875 2514.199219 2368.890625 2500.851562 2368.890625 C 2487.480469 2368.890625 2475.421875 2371.96875 2464.648438 2378.109375 C 2453.878906 2384.25 2445.421875 2392.808594 2439.269531 2403.800781 C 2433.140625 2414.789062 2430.070312 2427.289062 2430.070312 2441.300781 C 2430.070312 2455.300781 2433.140625 2467.800781 2439.269531 2478.78125 C 2445.421875 2489.78125 2453.878906 2498.339844 2464.648438 2504.488281 C 2475.421875 2510.621094 2487.480469 2513.691406 2500.851562 2513.691406 Z M 2500.851562 2513.691406 "/>
<path fill-rule="nonzero" fill="rgb(10.205078%, 10.205078%, 10.205078%)" fill-opacity="1" d="M 2871.539062 2328.179688 L 2871.539062 2554.410156 L 2828.558594 2554.410156 L 2715.761719 2417.050781 L 2715.761719 2554.410156 L 2664.058594 2554.410156 L 2664.058594 2328.179688 L 2707.351562 2328.179688 L 2819.820312 2465.53125 L 2819.820312 2328.179688 Z M 2871.539062 2328.179688 "/>
<path fill-rule="nonzero" fill="rgb(10.205078%, 10.205078%, 10.205078%)" fill-opacity="1" d="M 1105.03125 2679.429688 L 1105.03125 2706.320312 L 1087.460938 2706.320312 L 1087.460938 2679.210938 L 1058.070312 2630.410156 L 1076.730469 2630.410156 L 1097 2664.128906 L 1117.28125 2630.410156 L 1134.53125 2630.410156 Z M 1105.03125 2679.429688 "/>
<path fill-rule="nonzero" fill="rgb(10.205078%, 10.205078%, 10.205078%)" fill-opacity="1" d="M 1203.289062 2707.621094 C 1195.410156 2707.621094 1188.300781 2705.921875 1181.980469 2702.519531 C 1175.660156 2699.128906 1170.699219 2694.449219 1167.121094 2688.488281 C 1163.550781 2682.519531 1161.761719 2675.820312 1161.761719 2668.371094 C 1161.761719 2660.921875 1163.550781 2654.21875 1167.121094 2648.261719 C 1170.699219 2642.289062 1175.660156 2637.609375 1181.980469 2634.210938 C 1188.300781 2630.820312 1195.410156 2629.121094 1203.289062 2629.121094 C 1211.171875 2629.121094 1218.25 2630.820312 1224.539062 2634.210938 C 1230.828125 2637.609375 1235.789062 2642.289062 1239.398438 2648.261719 C 1243.019531 2654.21875 1244.820312 2660.921875 1244.820312 2668.371094 C 1244.820312 2675.820312 1243.019531 2682.519531 1239.398438 2688.488281 C 1235.789062 2694.449219 1230.828125 2699.128906 1224.539062 2702.519531 C 1218.25 2705.921875 1211.171875 2707.621094 1203.289062 2707.621094 Z M 1203.289062 2692.660156 C 1207.769531 2692.660156 1211.820312 2691.628906 1215.429688 2689.570312 C 1219.050781 2687.511719 1221.890625 2684.628906 1223.949219 2680.941406 C 1226.011719 2677.261719 1227.039062 2673.070312 1227.039062 2668.371094 C 1227.039062 2663.671875 1226.011719 2659.480469 1223.949219 2655.789062 C 1221.890625 2652.101562 1219.050781 2649.230469 1215.429688 2647.160156 C 1211.820312 2645.101562 1207.769531 2644.070312 1203.289062 2644.070312 C 1198.800781 2644.070312 1194.75 2645.101562 1191.140625 2647.160156 C 1187.519531 2649.230469 1184.679688 2652.101562 1182.621094 2655.789062 C 1180.570312 2659.480469 1179.539062 2663.671875 1179.539062 2668.371094 C 1179.539062 2673.070312 1180.570312 2677.261719 1182.621094 2680.941406 C 1184.679688 2684.628906 1187.519531 2687.511719 1191.140625 2689.570312 C 1194.75 2691.628906 1198.800781 2692.660156 1203.289062 2692.660156 Z M 1203.289062 2692.660156 "/>
<path fill-rule="nonzero" fill="rgb(10.205078%, 10.205078%, 10.205078%)" fill-opacity="1" d="M 1319.648438 2707.621094 C 1308.808594 2707.621094 1300.359375 2704.621094 1294.320312 2698.621094 C 1288.289062 2692.621094 1285.28125 2684.050781 1285.28125 2672.910156 L 1285.28125 2630.410156 L 1302.859375 2630.410156 L 1302.859375 2672.269531 C 1302.859375 2685.871094 1308.488281 2692.660156 1319.761719 2692.660156 C 1325.261719 2692.660156 1329.449219 2691.019531 1332.339844 2687.730469 C 1335.230469 2684.441406 1336.679688 2679.28125 1336.679688 2672.269531 L 1336.679688 2630.410156 L 1354.03125 2630.410156 L 1354.03125 2672.910156 C 1354.03125 2684.050781 1351 2692.621094 1344.960938 2698.621094 C 1338.929688 2704.621094 1330.5 2707.621094 1319.648438 2707.621094 Z M 1319.648438 2707.621094 "/>
<path fill-rule="nonzero" fill="rgb(10.205078%, 10.205078%, 10.205078%)" fill-opacity="1" d="M 1447.628906 2706.320312 L 1432.980469 2685.179688 L 1416.828125 2685.179688 L 1416.828125 2706.320312 L 1399.269531 2706.320312 L 1399.269531 2630.410156 L 1432.128906 2630.410156 C 1438.839844 2630.410156 1444.679688 2631.53125 1449.628906 2633.769531 C 1454.578125 2636.019531 1458.398438 2639.191406 1461.078125 2643.320312 C 1463.75 2647.441406 1465.089844 2652.320312 1465.089844 2657.960938 C 1465.089844 2663.601562 1463.730469 2668.460938 1461.019531 2672.539062 C 1458.308594 2676.621094 1454.460938 2679.75 1449.46875 2681.910156 L 1466.5 2706.320312 Z M 1447.300781 2657.960938 C 1447.300781 2653.691406 1445.921875 2650.421875 1443.171875 2648.148438 C 1440.429688 2645.871094 1436.421875 2644.730469 1431.140625 2644.730469 L 1416.828125 2644.730469 L 1416.828125 2671.179688 L 1431.140625 2671.179688 C 1436.421875 2671.179688 1440.429688 2670.019531 1443.171875 2667.710938 C 1445.921875 2665.398438 1447.300781 2662.148438 1447.300781 2657.960938 Z M 1447.300781 2657.960938 "/>
<path fill-rule="nonzero" fill="rgb(10.205078%, 10.205078%, 10.205078%)" fill-opacity="1" d="M 1581.140625 2644.730469 L 1556.859375 2644.730469 L 1556.859375 2630.410156 L 1623 2630.410156 L 1623 2644.730469 L 1598.71875 2644.730469 L 1598.71875 2706.320312 L 1581.140625 2706.320312 Z M 1581.140625 2644.730469 "/>
<path fill-rule="nonzero" fill="rgb(10.205078%, 10.205078%, 10.205078%)" fill-opacity="1" d="M 1706.511719 2690.050781 L 1671.269531 2690.050781 L 1664.558594 2706.320312 L 1646.558594 2706.320312 L 1680.378906 2630.410156 L 1697.730469 2630.410156 L 1731.660156 2706.320312 L 1713.238281 2706.320312 Z M 1700.980469 2676.710938 L 1688.941406 2647.648438 L 1676.910156 2676.710938 Z M 1700.980469 2676.710938 "/>
<path fill-rule="nonzero" fill="rgb(10.205078%, 10.205078%, 10.205078%)" fill-opacity="1" d="M 1817.679688 2667.179688 L 1833.730469 2667.179688 L 1833.730469 2697.980469 C 1829.609375 2701.078125 1824.828125 2703.46875 1819.398438 2705.128906 C 1813.980469 2706.789062 1808.53125 2707.621094 1803.039062 2707.621094 C 1795.160156 2707.621094 1788.070312 2705.941406 1781.78125 2702.589844 C 1775.5 2699.21875 1770.558594 2694.558594 1766.980469 2688.601562 C 1763.410156 2682.628906 1761.621094 2675.890625 1761.621094 2668.371094 C 1761.621094 2660.851562 1763.410156 2654.109375 1766.980469 2648.148438 C 1770.558594 2642.179688 1775.53125 2637.519531 1781.890625 2634.160156 C 1788.25 2630.800781 1795.410156 2629.121094 1803.371094 2629.121094 C 1810.019531 2629.121094 1816.050781 2630.238281 1821.46875 2632.480469 C 1826.890625 2634.71875 1831.449219 2637.96875 1835.140625 2642.230469 L 1823.859375 2652.648438 C 1818.441406 2646.929688 1811.890625 2644.070312 1804.230469 2644.070312 C 1799.390625 2644.070312 1795.078125 2645.089844 1791.320312 2647.121094 C 1787.558594 2649.140625 1784.640625 2651.988281 1782.539062 2655.679688 C 1780.449219 2659.371094 1779.398438 2663.601562 1779.398438 2668.371094 C 1779.398438 2673.070312 1780.449219 2677.261719 1782.539062 2680.941406 C 1784.640625 2684.628906 1787.539062 2687.511719 1791.261719 2689.570312 C 1794.988281 2691.628906 1799.238281 2692.660156 1804.011719 2692.660156 C 1809.070312 2692.660156 1813.628906 2691.578125 1817.679688 2689.398438 Z M 1817.679688 2667.179688 "/>
<path fill-rule="nonzero" fill="rgb(10.205078%, 10.205078%, 10.205078%)" fill-opacity="1" d="M 1877.878906 2630.410156 L 1895.441406 2630.410156 L 1895.441406 2692.011719 L 1933.5 2692.011719 L 1933.5 2706.320312 L 1877.878906 2706.320312 Z M 1877.878906 2630.410156 "/>
<path fill-rule="nonzero" fill="rgb(10.205078%, 10.205078%, 10.205078%)" fill-opacity="1" d="M 1971.25 2706.320312 L 1988.8125 2706.320312 L 1988.8125 2630.414062 L 1971.25 2630.414062 Z M 1971.25 2706.320312 "/>
<path fill-rule="nonzero" fill="rgb(10.205078%, 10.205078%, 10.205078%)" fill-opacity="1" d="M 2104.328125 2630.410156 L 2104.328125 2706.320312 L 2089.890625 2706.320312 L 2052.050781 2660.230469 L 2052.050781 2706.320312 L 2034.699219 2706.320312 L 2034.699219 2630.410156 L 2049.230469 2630.410156 L 2086.96875 2676.488281 L 2086.96875 2630.410156 Z M 2104.328125 2630.410156 "/>
<path fill-rule="nonzero" fill="rgb(10.205078%, 10.205078%, 10.205078%)" fill-opacity="1" d="M 2208.988281 2692.230469 L 2208.988281 2706.320312 L 2150.210938 2706.320312 L 2150.210938 2630.410156 L 2207.570312 2630.410156 L 2207.570312 2644.511719 L 2167.660156 2644.511719 L 2167.660156 2660.988281 L 2202.910156 2660.988281 L 2202.910156 2674.660156 L 2167.660156 2674.660156 L 2167.660156 2692.230469 Z M 2208.988281 2692.230469 "/>
<path fill-rule="nonzero" fill="rgb(10.205078%, 10.205078%, 10.205078%)" fill-opacity="1" d="M 2379.050781 2630.410156 L 2379.050781 2706.320312 L 2361.46875 2706.320312 L 2361.46875 2675.191406 L 2326.980469 2675.191406 L 2326.980469 2706.320312 L 2309.421875 2706.320312 L 2309.421875 2630.410156 L 2326.980469 2630.410156 L 2326.980469 2660.339844 L 2361.46875 2660.339844 L 2361.46875 2630.410156 Z M 2379.050781 2630.410156 "/>
<path fill-rule="nonzero" fill="rgb(10.205078%, 10.205078%, 10.205078%)" fill-opacity="1" d="M 2483.710938 2692.230469 L 2483.710938 2706.320312 L 2424.929688 2706.320312 L 2424.929688 2630.410156 L 2482.289062 2630.410156 L 2482.289062 2644.511719 L 2442.378906 2644.511719 L 2442.378906 2660.988281 L 2477.628906 2660.988281 L 2477.628906 2674.660156 L 2442.378906 2674.660156 L 2442.378906 2692.230469 Z M 2483.710938 2692.230469 "/>
<path fill-rule="nonzero" fill="rgb(10.205078%, 10.205078%, 10.205078%)" fill-opacity="1" d="M 2573.929688 2706.320312 L 2559.289062 2685.179688 L 2543.128906 2685.179688 L 2543.128906 2706.320312 L 2525.570312 2706.320312 L 2525.570312 2630.410156 L 2558.429688 2630.410156 C 2565.148438 2630.410156 2570.980469 2631.53125 2575.929688 2633.769531 C 2580.890625 2636.019531 2584.699219 2639.191406 2587.378906 2643.320312 C 2590.058594 2647.441406 2591.398438 2652.320312 2591.398438 2657.960938 C 2591.398438 2663.601562 2590.039062 2668.460938 2587.320312 2672.539062 C 2584.609375 2676.621094 2580.761719 2679.75 2575.769531 2681.910156 L 2592.808594 2706.320312 Z M 2573.601562 2657.960938 C 2573.601562 2653.691406 2572.230469 2650.421875 2569.480469 2648.148438 C 2566.730469 2645.871094 2562.730469 2644.730469 2557.449219 2644.730469 L 2543.128906 2644.730469 L 2543.128906 2671.179688 L 2557.449219 2671.179688 C 2562.730469 2671.179688 2566.730469 2670.019531 2569.480469 2667.710938 C 2572.230469 2665.398438 2573.601562 2662.148438 2573.601562 2657.960938 Z M 2573.601562 2657.960938 "/>
<path fill-rule="nonzero" fill="rgb(10.205078%, 10.205078%, 10.205078%)" fill-opacity="1" d="M 2691.941406 2692.230469 L 2691.941406 2706.320312 L 2633.160156 2706.320312 L 2633.160156 2630.410156 L 2690.519531 2630.410156 L 2690.519531 2644.511719 L 2650.609375 2644.511719 L 2650.609375 2660.988281 L 2685.859375 2660.988281 L 2685.859375 2674.660156 L 2650.609375 2674.660156 L 2650.609375 2692.230469 Z M 2691.941406 2692.230469 "/>
</svg>
