<?xml version="1.0" encoding="iso-8859-1"?>
<!-- Uploaded to: SVG Repo, www.svgrepo.com, Generator: SVG Repo Mixer Tools -->
<svg fill="#000000" height="100px" width="100px" version="1.1" xmlns="http://www.w3.org/2000/svg" xmlns:xlink="http://www.w3.org/1999/xlink" viewBox="0 0 496 496" xml:space="preserve">
	<g>
		<path d="M104,416c0-17.648-14.352-32-32-32s-32,14.352-32,32s14.352,32,32,32S104,433.648,104,416z M72,432
			c-8.824,0-16-7.176-16-16c0-8.824,7.176-16,16-16s16,7.176,16,16C88,424.824,80.824,432,72,432z"/>
		<path d="M280,416c0-17.648-14.352-32-32-32s-32,14.352-32,32s14.352,32,32,32S280,433.648,280,416z M248,432
			c-8.824,0-16-7.176-16-16c0-8.824,7.176-16,16-16c8.824,0,16,7.176,16,16C264,424.824,256.824,432,248,432z"/>
		<path d="M432,368v-40H256v-24h158.4V0H81.6v304H240v24H64v40H0v128h144V368H80v-24h160v24h-64v128h144V368h-64v-24h160v24h-64
			v128h144V368H432z M48,480c0-8.824,7.176-16,16-16h16c8.824,0,16,7.176,16,16H48z M128,384v96h-16c0-17.648-14.352-32-32-32h-8
			h-8c-17.648,0-32,14.352-32,32H16v-96h56H128z M224,480c0-8.824,7.176-16,16-16h16c8.824,0,16,7.176,16,16H224z M304,384v96h-16
			c0-17.648-14.352-32-32-32h-8h-8c-17.648,0-32,14.352-32,32h-16v-96h56H304z M97.6,288V16h300.8v272H97.6z M400,480
			c0-8.824,7.176-16,16-16h16c8.824,0,16,7.176,16,16H400z M480,480h-16c0-17.648-14.352-32-32-32h-8h-8c-17.648,0-32,14.352-32,32
			h-16v-96h56h56V480z"/>
		<path d="M456,416c0-17.648-14.352-32-32-32s-32,14.352-32,32s14.352,32,32,32S456,433.648,456,416z M424,432
			c-8.824,0-16-7.176-16-16c0-8.824,7.176-16,16-16c8.824,0,16,7.176,16,16C440,424.824,432.824,432,424,432z"/>
		<path d="M336,224h-48v16H112v16h176v16h48v-16h48v-16h-48V224z M320,256h-16v-16h16V256z"/>
		<path d="M112,144h272V32H112V144z M128,48h240v80H128V48z"/>
		<polygon points="336,80 320,80 320,96 304,96 304,80 288,80 288,96 272,96 272,80 256,80 256,96 240,96 240,80 224,80 224,96 
			208,96 208,80 192,80 192,96 176,96 176,80 160,80 160,96 144,96 144,112 352,112 352,96 336,96 			"/>
		<path d="M176,192c0-17.648-14.352-32-32-32s-32,14.352-32,32s14.352,32,32,32S176,209.648,176,192z M128,192
			c0-8.824,7.176-16,16-16c8.824,0,16,7.176,16,16c0,8.824-7.176,16-16,16C135.176,208,128,200.824,128,192z"/>
		<path d="M256,192c0-17.648-14.352-32-32-32s-32,14.352-32,32s14.352,32,32,32S256,209.648,256,192z M208,192
			c0-8.824,7.176-16,16-16c8.824,0,16,7.176,16,16c0,8.824-7.176,16-16,16C215.176,208,208,200.824,208,192z"/>
		<path d="M272,208h112v-48H272V208z M336,176h32v16h-32V176z M288,176h32v16h-32V176z"/>
	</g>
</svg>