<?xml version="1.0" encoding="iso-8859-1"?>
<!-- Uploaded to: SVG Repo, www.svgrepo.com, Generator: SVG Repo Mixer Tools -->
<svg fill="#000000" height="100px" width="100px" version="1.1" xmlns="http://www.w3.org/2000/svg" xmlns:xlink="http://www.w3.org/1999/xlink" viewBox="0 0 496 496" xml:space="preserve">
	<g>
		<path d="M368,256c0-35.288-28.712-64-64-64h-10.84c16.344-13.208,26.84-33.392,26.84-56V96c0-26.472-21.528-48-48-48h-48
			c-26.472,0-48,21.528-48,48v40c0,22.608,10.496,42.792,26.84,56H192c-35.288,0-64,28.712-64,64v96h56h8h112h8h56V256z
				M294.584,227.328l-32.472,13.92L284.28,208h5.472L294.584,227.328z M248,233.576L230.944,208h34.112L248,233.576z M192,96
			c0-17.648,14.352-32,32-32h48c17.648,0,32,14.352,32,32v11.104l-4.48-7.464C295.2,92.464,287.312,88,278.936,88h-5.048
			c-9.152,0-17.376,5.088-21.472,13.256c-1.688,3.392-7.16,3.384-8.84,0.008C239.488,93.088,231.256,88,222.112,88h-5.048
			c-8.376,0-16.264,4.464-20.584,11.648l-4.48,7.464V96z M192.104,138.04l18.088-30.152c1.44-2.4,4.072-3.888,6.864-3.888h5.048
			c3.056,0,5.8,1.696,7.16,4.432C232.84,115.56,240.024,120,248,120s15.16-4.44,18.736-11.576c1.36-2.728,4.096-4.424,7.152-4.424
			h5.048c2.8,0,5.432,1.496,6.864,3.88l18.088,30.16C302.808,167.968,278.184,192,248,192S193.192,167.968,192.104,138.04z
				M206.24,208h5.472l22.16,33.248l-32.472-13.92L206.24,208z M176,336h-32v-16h32V336z M352,336h-32v-16h32V336z M352,304h-32v-48
			h-16v80H192v-80h-16v48h-32v-48c0-25.704,20.32-46.688,45.728-47.888l-7.144,28.56L248,264.704l65.416-28.032l-7.144-28.56
			C331.68,209.312,352,230.296,352,256V304z"/>
		<path d="M80,160c44.112,0,80-35.888,80-80S124.112,0,80,0S0,35.888,0,80S35.888,160,80,160z M80,16c35.288,0,64,28.712,64,64
			s-28.712,64-64,64s-64-28.712-64-64S44.712,16,80,16z"/>
		<path d="M80,336c-44.112,0-80,35.888-80,80s35.888,80,80,80s80-35.888,80-80S124.112,336,80,336z M80,480
			c-35.288,0-64-28.712-64-64c0-35.288,28.712-64,64-64s64,28.712,64,64C144,451.288,115.288,480,80,480z"/>
		<path d="M416,160c44.112,0,80-35.888,80-80S460.112,0,416,0s-80,35.888-80,80S371.888,160,416,160z M416,16
			c35.288,0,64,28.712,64,64s-28.712,64-64,64c-35.288,0-64-28.712-64-64S380.712,16,416,16z"/>
		<path d="M416,336c-44.112,0-80,35.888-80,80s35.888,80,80,80s80-35.888,80-80S460.112,336,416,336z M416,480
			c-35.288,0-64-28.712-64-64c0-35.288,28.712-64,64-64c35.288,0,64,28.712,64,64C480,451.288,451.288,480,416,480z"/>
		<path d="M443.464,399.848l12.128-12.128l-11.312-11.312l-12.128,12.128c-2.528-1.488-5.248-2.64-8.152-3.4V368h-16v17.136
			c-2.904,0.752-5.632,1.904-8.152,3.4l-12.128-12.128l-11.312,11.312l12.128,12.128c-1.488,2.528-2.64,5.248-3.4,8.152H368v16
			h17.136c0.752,2.904,1.904,5.632,3.4,8.152l-12.128,12.128l11.312,11.312l12.128-12.128c2.528,1.488,5.248,2.64,8.152,3.4V464h16
			v-17.136c2.904-0.752,5.632-1.904,8.152-3.4l12.128,12.128l11.312-11.312l-12.128-12.128c1.488-2.528,2.64-5.248,3.4-8.152H464
			v-16h-17.136C446.112,405.096,444.96,402.368,443.464,399.848z M416,432c-8.824,0-16-7.176-16-16c0-8.824,7.176-16,16-16
			c8.824,0,16,7.176,16,16C432,424.824,424.824,432,416,432z"/>
		<path d="M56,136h48v-32h32V56h-32V24H56v32H24v48h32V136z M40,88V72h32V40h16v32h32v16H88v32H72V88H40z"/>
		<path d="M424,104h-16c-4.416,0-8-3.584-8-8h-16c0,13.232,10.768,24,24,24v16h16v-16c13.232,0,24-10.768,24-24s-10.768-24-24-24
			h-16c-4.416,0-8-3.584-8-8s3.584-8,8-8h16c4.416,0,8,3.584,8,8h16c0-13.232-10.768-24-24-24V24h-16v16c-13.232,0-24,10.768-24,24
			s10.768,24,24,24h16c4.416,0,8,3.584,8,8S428.416,104,424,104z"/>
		<path d="M97.376,376c-6.296,0-12.304,1.888-17.376,5.392C74.928,377.888,68.92,376,62.624,376C45.744,376,32,389.744,32,406.624
			c0,8.176,3.184,15.872,8.968,21.656L80,467.312l39.032-39.032c5.784-5.776,8.968-13.472,8.968-21.656
			C128,389.744,114.256,376,97.376,376z M107.72,416.968L80,444.688l-27.72-27.72c-2.72-2.72-4.28-6.488-4.28-10.344
			C48,398.56,54.56,392,62.624,392c3.848,0,7.624,1.56,10.344,4.28L80,403.312l7.032-7.032c2.72-2.72,6.488-4.28,10.344-4.28
			c8.064,0,14.624,6.56,14.624,14.624C112,410.48,110.44,414.248,107.72,416.968z"/>
	</g>
</svg>